<svg version="1.1" id="Layer_1" xmlns="http://www.w3.org/2000/svg" xmlns:xlink="http://www.w3.org/1999/xlink" x="0px" y="0px"
	 width="100%" viewBox="0 0 940 788" enable-background="new 0 0 940 788" xml:space="preserve">
<path fill="#7A5A4D" opacity="1.000000" stroke="none" 
	d="
M710.000000,789.000000 
	C474.833405,789.000000 240.166809,788.989563 5.500251,789.093384 
	C1.751493,789.095032 0.905168,788.249817 0.906653,784.500122 
	C1.009442,524.833618 1.009434,265.167023 0.906769,5.500482 
	C0.905287,1.752380 1.749331,0.905540 5.499583,0.906763 
	C315.832794,1.007917 626.166016,1.007892 936.499268,0.906978 
	C940.246582,0.905759 941.094971,1.748299 941.093445,5.499310 
	C940.990540,265.165863 940.990601,524.832458 941.093140,784.498962 
	C941.094604,788.245789 940.253418,789.102112 936.500793,789.095642 
	C861.167358,788.967651 785.833679,789.000000 710.000000,789.000000 
z"/>
<path fill="#FEFDFD" opacity="1.000000" stroke="none" 
	d="
M559.136353,358.691284 
	C559.333130,375.489105 559.415466,391.912933 559.372192,408.807922 
	C560.085693,411.480988 562.073853,413.316711 561.274353,416.404297 
	C561.006104,417.038910 560.853516,417.273346 560.370911,417.769958 
	C559.003113,418.517639 557.940979,418.796967 556.417297,418.299805 
	C553.386597,417.621460 554.857666,413.197815 551.893433,413.403595 
	C549.800171,413.548859 548.232117,415.587250 546.262085,416.509155 
	C541.792175,418.600861 537.292725,418.835419 532.709412,416.950165 
	C531.476501,416.443054 530.292542,415.825806 529.063660,415.310608 
	C521.461426,412.123291 517.556580,413.009308 512.603699,419.683258 
	C508.212433,425.600525 502.905823,429.119537 495.227966,428.289307 
	C491.594666,427.896423 488.620148,426.081177 485.615845,424.334869 
	C476.372528,418.962006 472.168610,418.949493 463.932373,425.932037 
	C456.649414,432.106354 445.346832,432.004395 439.463074,424.351593 
	C438.255341,422.780670 436.835358,421.345947 435.494568,419.869904 
	C431.581146,415.561920 426.872162,413.757965 421.113495,415.763031 
	C420.484406,415.982025 421.248322,415.659088 420.642670,415.927795 
	C408.665070,421.241913 402.815918,417.928223 395.659882,407.150909 
	C393.642334,404.112366 391.386078,401.120026 386.898132,400.649109 
	C385.387238,400.778809 384.446106,400.419403 383.417389,399.281494 
	C383.106140,384.305908 383.067596,369.623596 383.086975,354.476501 
	C383.972504,353.083618 384.973724,352.552673 386.672180,352.723145 
	C387.915497,353.050720 388.630157,353.512054 389.033691,354.261597 
	C394.329254,364.098419 403.617035,368.541321 413.468994,371.962982 
	C429.762329,377.621735 446.603821,380.260925 463.855591,380.622314 
	C481.871338,380.999695 499.768311,380.223816 517.260925,375.544189 
	C528.022400,372.665283 538.765076,369.562744 547.512756,362.061127 
	C548.781311,360.973297 550.007629,359.867432 551.270508,358.218781 
	C551.872437,357.490784 552.244141,357.099121 552.944580,356.464111 
	C553.496094,356.085693 553.738098,355.968903 554.371094,355.763733 
	C556.912415,355.378479 558.329102,356.264343 559.136353,358.691284 
z"/>
<path fill="#F5EFEB" opacity="1.000000" stroke="none" 
	d="
M560.151123,415.800171 
	C559.674072,413.586792 559.381104,411.727081 559.167358,409.573242 
	C559.926270,411.426117 561.792297,412.170471 563.588196,413.080261 
	C568.808044,415.724731 573.717773,418.816345 577.559448,423.346619 
	C583.809204,430.716675 583.803589,438.530487 577.461792,445.861725 
	C572.556030,451.532867 566.134583,455.042603 559.430237,458.038849 
	C542.537659,465.588379 524.582153,469.072937 506.350159,470.917725 
	C478.461212,473.739624 450.569031,473.552704 422.806213,469.118256 
	C411.462372,467.306335 400.318146,464.682037 389.503448,460.743469 
	C388.168365,460.257233 386.884552,459.129181 385.341827,459.925476 
	C385.054810,460.073639 385.756897,460.830963 385.802155,460.526001 
	C386.104340,458.490082 384.152100,458.625946 383.036652,458.110840 
	C378.036224,455.801666 373.243225,453.201904 368.951477,449.688049 
	C357.466919,440.285095 357.259399,429.573120 368.359924,419.863129 
	C371.144470,417.427368 374.102814,415.086487 377.475555,413.854431 
	C382.279846,412.099457 383.692200,409.050537 382.999512,404.359070 
	C382.783295,402.894745 382.985474,401.368622 383.070374,399.429504 
	C384.027222,398.978027 384.909821,398.967804 386.123535,398.959625 
	C389.206177,399.362793 389.133026,401.587341 389.269592,403.532410 
	C389.572968,407.852295 389.508575,412.189423 389.402679,416.512207 
	C389.244659,422.959381 392.111389,427.655975 397.269592,431.205200 
	C408.931305,439.229248 422.247742,442.946106 435.883636,445.408173 
	C465.811432,450.811890 495.488892,449.532776 524.760925,440.959839 
	C530.377075,439.315002 535.706665,437.013550 540.788330,434.121735 
	C546.746033,430.731323 551.661255,426.441681 553.576294,419.503876 
	C553.843994,418.534210 554.412048,417.691284 555.750977,417.086761 
	C557.033691,416.978424 557.917358,416.968536 559.132629,416.962097 
	C562.352356,417.755371 562.154724,419.878235 561.681458,422.112793 
	C560.388489,428.218567 557.225464,433.150787 552.372681,437.048553 
	C542.378174,445.076111 530.693237,449.284363 518.376648,451.961273 
	C481.912689,459.886414 445.737732,459.736908 410.033691,447.787140 
	C402.062378,445.119263 394.654236,441.462402 388.578278,435.451965 
	C385.349609,432.258118 382.387390,428.937134 381.065613,424.451416 
	C380.104492,421.189697 378.198395,420.867676 375.363525,422.453918 
	C365.003632,428.250671 364.143890,438.212006 373.652130,445.311523 
	C385.004333,453.787933 398.325104,457.557190 411.882782,460.513092 
	C435.424957,465.645844 459.305969,467.611115 483.332031,466.461456 
	C507.323914,465.313416 531.103210,462.381927 553.741028,453.588531 
	C559.665894,451.287079 565.299011,448.337280 570.067383,444.090332 
	C577.335754,437.616730 577.290527,431.707428 570.213074,425.066315 
	C568.872742,423.808716 567.505554,422.575684 565.864197,421.734192 
	C563.399780,420.470703 561.631042,418.555908 560.151123,415.800171 
z"/>
<path fill="#F5EFEB" opacity="1.000000" stroke="none" 
	d="
M387.090240,353.915863 
	C385.756836,354.014740 384.806976,354.003357 383.501038,354.001862 
	C382.268066,346.370728 386.111908,340.916138 391.637695,336.466949 
	C403.961487,326.544189 418.731598,322.515717 433.891785,319.979980 
	C464.753174,314.817963 495.445679,315.325287 525.756470,323.950195 
	C526.852661,324.262085 528.171570,325.502930 529.246643,323.860657 
	C529.315613,323.755341 528.794861,323.186371 528.465881,322.945923 
	C528.369263,322.875336 527.783020,323.175781 527.768860,323.336731 
	C527.597900,325.281525 529.371216,325.091248 530.406372,325.488129 
	C535.846313,327.573700 541.148499,329.916077 546.128479,332.968201 
	C555.556946,338.746674 560.855408,346.698486 559.399963,358.622223 
	C557.979431,358.406555 556.708008,357.747864 555.129272,357.023682 
	C553.654480,356.407043 553.028259,355.440308 552.999146,354.196442 
	C552.784241,345.024292 546.561462,340.270477 539.474854,336.583588 
	C525.875061,329.508179 511.124939,326.343933 496.014191,324.358765 
	C488.284332,323.343292 480.500427,323.074249 472.762512,322.288635 
	C466.441925,321.646973 459.907776,323.249786 453.449493,323.718353 
	C441.994629,324.549530 430.747345,326.890656 419.647430,329.894897 
	C412.846100,331.735718 406.514038,334.658478 400.434021,338.116425 
	C395.095154,341.152802 390.719299,345.139954 389.176483,351.455444 
	C388.933777,352.449097 388.424835,353.300262 387.090240,353.915863 
z"/>
<path fill="#7B5C50" opacity="1.000000" stroke="none" 
	d="
M386.838013,354.364410 
	C386.223999,345.744995 391.196564,340.822876 397.443024,336.752594 
	C407.077301,330.474762 417.859955,327.052368 428.979553,324.775909 
	C462.499023,317.913605 495.778503,318.401825 528.547546,329.019287 
	C536.964172,331.746368 545.037354,335.377808 551.265076,342.049042 
	C555.033142,346.085388 556.893372,350.645660 554.854248,356.568634 
	C554.821960,356.958160 554.665466,357.063141 554.714172,357.143799 
	C554.865112,357.724335 554.764038,358.172943 554.105835,358.739777 
	C547.009949,367.570251 537.439087,371.727509 527.440857,375.064514 
	C503.056549,383.203094 477.935852,384.446686 452.563477,382.456268 
	C435.576935,381.123688 418.960785,377.902344 403.483459,370.380249 
	C396.379883,366.927856 389.818268,362.722656 386.838013,354.364410 
z"/>
<path fill="#7B5C50" opacity="1.000000" stroke="none" 
	d="
M556.092651,416.544586 
	C556.028015,425.896118 550.650879,431.228577 543.629700,435.481384 
	C531.425781,442.873322 517.848877,446.314606 504.011749,448.451477 
	C475.383026,452.872650 446.912201,452.115479 418.894836,444.011292 
	C410.227661,441.504272 401.901794,438.215424 394.643860,432.634888 
	C389.282928,428.512939 386.223907,423.412231 386.537018,416.396149 
	C386.781921,410.908081 386.559357,405.399139 386.499573,399.430542 
	C390.405670,396.530853 392.671021,399.737549 394.753448,401.911224 
	C397.140350,404.402679 398.739624,407.631195 400.826965,410.430695 
	C405.388397,416.548401 409.835907,417.735382 416.942688,414.888519 
	C427.710083,410.575256 431.726257,411.341248 438.978455,420.576447 
	C445.812408,429.278961 454.275085,431.007538 463.365845,423.257965 
	C471.466644,416.352264 477.331879,416.452911 486.612579,422.113953 
	C497.665771,428.856171 503.134094,427.804962 511.157379,417.395569 
	C516.371765,410.630463 521.250122,408.719482 528.429382,412.671204 
	C538.601807,418.270386 546.510254,415.832245 553.744568,407.867737 
	C554.153015,407.418091 554.715393,407.108276 556.035400,406.099884 
	C556.035400,409.958191 556.035400,413.029541 556.092651,416.544586 
z"/>
<path fill="#7B5D51" opacity="1.000000" stroke="none" 
	d="
M559.813599,415.817047 
	C564.315857,417.241394 568.221191,419.753845 571.783936,422.805695 
	C580.706604,430.448669 580.765320,438.649384 571.784058,446.308502 
	C565.221375,451.905090 557.420837,455.306610 549.333740,457.980804 
	C521.308472,467.247955 492.378113,469.717041 463.080811,469.010925 
	C436.984955,468.381958 411.307312,465.152130 386.773102,455.593933 
	C380.536499,453.164246 374.629883,450.066589 369.654022,445.496399 
	C362.123505,438.579834 362.006592,430.927765 369.357086,423.925079 
	C372.500641,420.930267 376.072754,418.498993 380.004456,416.567352 
	C382.195404,415.490906 383.003021,415.833038 382.958374,418.328705 
	C382.807709,426.754486 387.637024,432.281769 394.019135,436.769196 
	C406.019897,445.207184 419.790771,449.105194 433.974426,451.468231 
	C464.560364,456.564087 494.991882,456.056427 525.020142,447.586700 
	C533.879944,445.087738 542.252808,441.471100 549.665649,435.821564 
	C555.685425,431.233704 559.649597,425.632324 559.524292,417.362183 
	C559.529480,416.706207 559.594788,416.446899 559.813599,415.817047 
z"/>
<path fill="#F5EFEB" opacity="1.000000" stroke="none" 
	d="
M554.009705,358.675293 
	C553.937317,358.499146 554.088745,358.080536 554.501526,357.443207 
	C554.586426,357.627289 554.409973,358.030060 554.009705,358.675293 
z"/>
<path fill="#FCFBFA" opacity="1.000000" stroke="none" 
	d="
M447.468262,329.268372 
	C451.577240,327.760254 455.086334,328.046204 457.904205,331.085602 
	C461.689117,335.168060 461.974976,340.057434 460.391327,345.073059 
	C459.068970,349.261169 456.381104,352.697296 453.419250,355.884186 
	C452.874268,356.470612 452.162689,357.035278 451.419098,357.283173 
	C444.981354,359.428955 432.336853,353.517090 429.718628,347.195068 
	C427.144165,340.978668 430.359863,334.060211 436.603302,334.182251 
	C441.347656,334.274994 444.202209,332.305695 447.468262,329.268372 
z"/>
<path fill="#FCFBFA" opacity="1.000000" stroke="none" 
	d="
M508.122589,351.824097 
	C505.950989,358.555634 498.699371,363.120331 492.568695,361.349304 
	C487.977356,360.022919 486.416077,355.564789 485.241699,351.466522 
	C484.186951,347.785767 484.905853,344.213226 488.301453,341.710785 
	C488.699310,341.417572 489.100098,341.093872 489.551178,340.913208 
	C491.692108,340.055664 494.444458,339.834381 495.632050,341.495117 
	C498.911591,346.081116 508.549805,342.483856 508.122589,351.824097 
z"/>
<path fill="#FCFBFA" opacity="1.000000" stroke="none" 
	d="
M469.939636,337.924927 
	C468.885010,336.402130 467.876801,335.244385 467.308777,333.900635 
	C466.446167,331.859955 466.394043,329.615479 467.323517,327.601013 
	C468.357971,325.358917 470.766388,323.069000 472.709900,324.237701 
	C476.972900,326.801208 483.707855,322.988251 486.111969,329.371796 
	C487.504700,333.069824 485.751373,336.188232 482.813995,338.540741 
	C478.050507,342.355682 474.716034,342.225952 469.939636,337.924927 
z"/>
</svg>