<?xml version="1.0" standalone="no"?>
<!DOCTYPE svg PUBLIC "-//W3C//DTD SVG 20010904//EN"
 "http://www.w3.org/TR/2001/REC-SVG-20010904/DTD/svg10.dtd">
<svg version="1.0" xmlns="http://www.w3.org/2000/svg"
 width="600.000000pt" height="800.000000pt" viewBox="0 0 600.000000 800.000000"
 preserveAspectRatio="xMidYMid meet">

<g transform="translate(0.000000,800.000000) scale(0.100000,-0.100000)"
fill="#000000" stroke="none">
<path d="M0 4000 l0 -3940 3000 0 3000 0 0 3940 0 3940 -3000 0 -3000 0 0
-3940z m2241 1800 c248 -28 516 -159 701 -343 l84 -84 62 68 c220 239 554 373
882 355 538 -29 957 -386 1076 -918 12 -51 17 -120 17 -228 -1 -134 -4 -168
-26 -253 -45 -170 -146 -358 -274 -508 -47 -55 -1705 -1678 -1727 -1690 -10
-6 -1700 1603 -1800 1713 -131 145 -230 332 -278 525 -26 105 -30 330 -9 428
49 222 157 419 324 592 260 269 592 386 968 343z"/>
<path d="M2760 4769 c-256 -31 -471 -106 -564 -197 -74 -71 -76 -79 -76 -424
l0 -306 -55 -31 c-66 -38 -131 -94 -151 -132 -18 -36 -18 -112 1 -148 69 -135
380 -253 767 -292 163 -16 641 -7 768 15 344 59 558 148 631 264 66 104 15
208 -143 292 l-58 31 0 315 c0 294 -1 317 -20 354 -54 106 -255 201 -520 246
-113 19 -469 27 -580 13z m425 -29 c282 -26 501 -98 605 -198 163 -158 -35
-327 -470 -404 -118 -21 -540 -18 -660 5 -341 64 -533 189 -498 325 47 179
556 315 1023 272z m-981 -781 c14 -7 43 -38 66 -70 73 -105 109 -118 214 -78
81 31 121 18 203 -70 l62 -66 58 0 c51 0 64 4 100 33 50 39 102 62 142 62 16
0 63 -18 105 -40 78 -41 128 -50 169 -29 12 6 49 40 82 75 53 57 65 64 98 64
21 0 64 -11 97 -25 33 -14 69 -25 80 -25 34 0 85 26 129 65 l41 37 0 -81 c0
-51 -5 -92 -14 -109 -42 -80 -186 -163 -360 -207 -452 -115 -1062 -43 -1260
148 -55 52 -66 91 -66 225 0 110 2 114 54 91z m-50 -300 c76 -113 292 -201
591 -239 120 -15 413 -13 545 5 291 38 518 141 574 259 9 19 16 52 16 75 0 23
4 41 8 41 21 0 132 -81 158 -116 122 -159 -136 -323 -626 -399 -143 -23 -532
-31 -696 -16 -251 24 -452 71 -602 141 -89 42 -133 74 -170 124 -19 25 -23 40
-19 79 3 39 11 56 43 89 21 22 62 53 89 69 l50 29 6 -51 c4 -28 18 -67 33 -90z"/>
<path d="M2982 4694 c-37 -26 -30 -78 17 -126 l40 -39 38 16 c49 20 73 49 73
89 0 42 -16 56 -61 56 -21 0 -41 5 -44 10 -9 15 -37 12 -63 -6z"/>
<path d="M2783 4663 c-12 -2 -33 -16 -45 -31 -17 -20 -30 -26 -52 -24 -67 8
-113 -38 -103 -104 12 -70 95 -124 193 -124 36 0 45 5 68 35 63 82 74 165 29
214 -30 31 -54 41 -90 34z"/>
<path d="M3183 4538 c-52 -25 -54 -114 -3 -172 27 -30 33 -32 72 -26 52 8 82
23 102 52 35 49 6 111 -51 111 -15 0 -34 8 -42 17 -21 24 -51 31 -78 18z"/>
</g>
</svg>
